<svg width="22" height="19" viewBox="0 0 22 19" fill="none" xmlns="http://www.w3.org/2000/svg">
<path d="M15.4945 0.589844C13.5597 0.589844 11.9065 1.96892 10.9982 2.91969C10.0899 1.96892 8.44032 0.589844 6.50647 0.589844C3.17324 0.589844 0.846161 2.91323 0.846161 6.23907C0.846161 9.90369 3.73631 12.2723 6.53231 14.5634C7.85232 15.6462 9.21847 16.7649 10.2662 18.0055C10.4425 18.2132 10.7009 18.3332 10.9723 18.3332H11.0259C11.2982 18.3332 11.5557 18.2123 11.7311 18.0055C12.7806 16.7649 14.1459 15.6452 15.4668 14.5634C18.2619 12.2732 21.1539 9.90461 21.1539 6.23907C21.1539 2.91323 18.8268 0.589844 15.4945 0.589844V0.589844Z"/>
</svg>
