<svg width="19" height="19" viewBox="0 0 19 19" fill="none" xmlns="http://www.w3.org/2000/svg">
<path d="M12.435 13.7212C12.7335 13.4877 13.1593 13.5137 13.4273 13.7817L17.293 17.6473L17.6463 17.294L13.7807 13.4283C13.5126 13.1603 13.4867 12.7344 13.7203 12.4359C14.7111 11.1695 15.2496 9.60792 15.25 8L12.435 13.7212ZM12.435 13.7212C11.1687 14.7115 9.60751 15.2496 8 15.25L12.435 13.7212ZM8 0.75C4.00321 0.75 0.75 4.00321 0.75 8C0.75 11.9967 4.00313 15.2499 7.99985 15.25L8 0.75ZM8 0.75C11.9967 0.75 15.2499 4.00312 15.25 7.99982L8 0.75Z" fill="white" fill-opacity="0.2" stroke="#D98046" stroke-width="1.5" stroke-linejoin="round"/>
</svg>
