<svg width="18" height="20" viewBox="0 0 18 20" fill="none" xmlns="http://www.w3.org/2000/svg">
<path d="M2 20H16C16.5304 20 17.0391 19.7893 17.4142 19.4142C17.7893 19.0391 18 18.5304 18 18V7C18 6.73478 17.8946 6.48043 17.7071 6.29289C17.5196 6.10535 17.2652 6 17 6H14V5.223C14 2.614 12.097 0.277997 9.5 0.0249967C8.80487 -0.0440911 8.10298 0.0330976 7.43949 0.251597C6.77599 0.470096 6.16557 0.825066 5.64752 1.29367C5.12946 1.76228 4.71524 2.33414 4.43149 2.97246C4.14774 3.61079 4.00076 4.30145 4 5V6H1C0.734784 6 0.48043 6.10535 0.292893 6.29289C0.105357 6.48043 0 6.73478 0 7V18C0 18.5304 0.210714 19.0391 0.585786 19.4142C0.960859 19.7893 1.46957 20 2 20ZM14 8V9.99999H12V8H14ZM6 5C6 3.346 7.346 2 9 2C10.654 2 12 3.346 12 5V6H6V5ZM4 8H6V9.99999H4V8Z" />
</svg>
